<?xml version="1.0" encoding="UTF-8"?>
<svg id="Layer_2" data-name="Layer 2" xmlns="http://www.w3.org/2000/svg" xmlns:xlink="http://www.w3.org/1999/xlink" viewBox="0 0 551.88 778.47">
  <defs>
    <style>
      .cls-1 {
        fill: #fff;
      }

      .cls-2 {
        clip-path: url(#clippath);
      }

      .cls-3 {
        fill: #7b1818;
      }
    </style>
    <clipPath id="clippath">
      <path class="cls-1" d="M226.47,386.96l73.09,138.11,73.09-138.11,27.55,42.97c7.44-11.01,16.19-21.41,25.06-30.76l6.71-15.93,36.68-37.72,36.26-34.28s33.17-32.27,40.76-85.08c.12-.83.18-1.67.18-2.5l2.55-105.42L527.71,0l-4.91,141.29c0,1.94-.3,3.87-.91,5.71l-29.4,105.51c-.5,1.52-1.3,2.92-2.36,4.12l-11.8,13.34-52.02,44.37s-14.21,7.37-15.42-8.31l-4.56-56.57,1.07-21.32.94-34.99-3.62-2.55-5.36,33.78-13,51.21-11.93,36.73-2.87,27.69c-.4,3.88-1.97,7.55-4.49,10.52l-16.14,19.03c-.54.64-1.43.87-2.22.58l-34.97-12.97c-7.55-2.8-15.84-2.93-23.48-.36l-40.37,13.58c-.75.25-1.59.04-2.12-.55l-20.03-22.11c-.32-.36-.51-.82-.52-1.3l-.48-22.15-23.38-85.91-8.37-46.28-2.71,2.71,1.72,45.78-6.4,69.17s-1.72,7.14-10.58,6.89-58.83-48.25-58.83-48.25l-8.53-10.82c-1.03-1.31-1.81-2.8-2.3-4.4l-16.99-55.92-14.52-54.15-3.2-74.09-9.35,55.88-6.89,81.48s-3.69,46.52,29.78,93.29l14.28,16.74,65.23,63.51,10.92,22.2c7.91,8.57,15.63,17.94,22.29,27.8l27.55-42.97Z"/>
    </clipPath>
  </defs>
  <g id="dual-ton">
    <g>
      <g>
        <path class="cls-1" d="M226.47,386.96l73.09,138.11,73.09-138.11,27.55,42.97c7.44-11.01,16.19-21.41,25.06-30.76l6.71-15.93,36.68-37.72,36.26-34.28s33.17-32.27,40.76-85.08c.12-.83.18-1.67.18-2.5l2.55-105.42L527.71,0l-4.91,141.29c0,1.94-.3,3.87-.91,5.71l-29.4,105.51c-.5,1.52-1.3,2.92-2.36,4.12l-11.8,13.34-52.02,44.37s-14.21,7.37-15.42-8.31l-4.56-56.57,1.07-21.32.94-34.99-3.62-2.55-5.36,33.78-13,51.21-11.93,36.73-2.87,27.69c-.4,3.88-1.97,7.55-4.49,10.52l-16.14,19.03c-.54.64-1.43.87-2.22.58l-34.97-12.97c-7.55-2.8-15.84-2.93-23.48-.36l-40.37,13.58c-.75.25-1.59.04-2.12-.55l-20.03-22.11c-.32-.36-.51-.82-.52-1.3l-.48-22.15-23.38-85.91-8.37-46.28-2.71,2.71,1.72,45.78-6.4,69.17s-1.72,7.14-10.58,6.89-58.83-48.25-58.83-48.25l-8.53-10.82c-1.03-1.31-1.81-2.8-2.3-4.4l-16.99-55.92-14.52-54.15-3.2-74.09-9.35,55.88-6.89,81.48s-3.69,46.52,29.78,93.29l14.28,16.74,65.23,63.51,10.92,22.2c7.91,8.57,15.63,17.94,22.29,27.8l27.55-42.97Z"/>
        <g class="cls-2">
          <polygon class="cls-3" points="0 152.89 125.59 248.07 92.57 16.1 55.81 84.99 0 152.89"/>
        </g>
      </g>
      <path d="M476.28,354.87c-.29.09-.56.22-.81.39-3.25,2.31-27.12,19.54-50.23,43.91-7.96,8.39-15.83,17.63-22.74,27.4-1.12,1.59-3.5,1.53-4.55-.11l-25.32-39.5-70.66,133.51c-1.03,1.95-3.83,1.95-4.86,0l-70.66-133.51-25.32,39.5c-1.05,1.64-3.42,1.7-4.55.12-6.11-8.63-12.96-16.85-19.97-24.44-23.98-25.96-49.71-44.53-53.02-46.88-.24-.17-.5-.29-.78-.38-39.14-11.64-75.61-13.46-75.61-13.46,19.96,100.79,89.42,108.76,102.35,109.36,1.24.06,2.28.94,2.55,2.15h0c.05.21.12.41.21.61l17.77,36.5c.18.37.28.79.28,1.2v78.47c0,.47.12.94.35,1.35l110.43,196.66c8.06,14.34,28.7,14.34,36.76,0l110.43-196.66c.23-.41.35-.87.35-1.35v-78.47c0-.42.09-.83.28-1.2l17.77-36.5c.09-.19.17-.4.21-.61h0c.27-1.21,1.31-2.09,2.55-2.15,12.93-.61,82.39-8.57,102.35-109.36,0,0-36.46,1.82-75.6,13.46Z"/>
    </g>
  </g>
</svg>