<?xml version="1.0" encoding="UTF-8"?>
<svg id="Layer_2" data-name="Layer 2" xmlns="http://www.w3.org/2000/svg" xmlns:xlink="http://www.w3.org/1999/xlink" viewBox="0 0 551.31 778.47">
  <defs>
    <style>
      .cls-1 {
        clip-path: url(#clippath);
      }

      .cls-2 {
        fill: #7b1818;
      }
    </style>
    <clipPath id="clippath">
      <path d="M475.71,354.87c-.29.09-.56.22-.81.39-3.25,2.31-27.12,19.54-50.23,43.91l6.71-15.93,36.68-37.72,36.26-34.28s33.17-32.27,40.76-85.08c.12-.83.18-1.67.18-2.5l2.55-105.42L527.14,0l-4.91,141.29c0,1.94-.3,3.87-.91,5.71l-29.4,105.51c-.5,1.52-1.3,2.92-2.36,4.12l-11.8,13.34-52.02,44.37s-14.21,7.37-15.42-8.31l-4.56-56.57,1.07-21.32.94-34.99-3.62-2.55-5.36,33.78-13,51.21-11.93,36.73-2.87,27.69c-.4,3.88-1.97,7.55-4.49,10.52l-16.14,19.03c-.54.64-1.43.87-2.22.58l-34.97-12.97c-7.55-2.8-15.84-2.93-23.48-.36l-40.37,13.58c-.75.25-1.59.04-2.12-.55l-20.03-22.11c-.32-.36-.51-.82-.52-1.3l-.48-22.15-23.38-85.91-8.37-46.28-2.71,2.71,1.72,45.78-6.4,69.17s-1.72,7.14-10.58,6.89-58.83-48.25-58.83-48.25l-8.53-10.82c-1.03-1.31-1.81-2.8-2.3-4.4l-16.99-55.92-14.52-54.15-3.2-74.09-9.35,55.88-6.89,81.48s-3.69,46.52,29.78,93.29l14.28,16.74,65.23,63.51,10.92,22.2c-23.98-25.96-49.71-44.53-53.02-46.88-.24-.17-.5-.29-.78-.38-39.14-11.64-75.61-13.46-75.61-13.46,19.96,100.79,89.42,108.76,102.35,109.36,1.24.06,2.28.94,2.55,2.15h0c.05.21.12.41.21.61l17.77,36.5c.18.37.28.79.28,1.2v78.47c0,.47.12.93.35,1.35l110.43,196.66c8.06,14.34,28.7,14.34,36.76,0l110.43-196.66c.23-.41.35-.87.35-1.35v-78.47c0-.42.09-.83.28-1.2l17.77-36.5c.09-.19.17-.4.21-.61.27-1.21,1.31-2.09,2.55-2.15,12.93-.61,82.39-8.57,102.35-109.36,0,0-36.46,1.82-75.6,13.46ZM421.52,402.55c-.34.37-.68.75-1.02,1.12.34-.37.68-.75,1.02-1.12ZM418.39,406.02c-.41.46-.81.92-1.21,1.38.4-.46.81-.92,1.21-1.38ZM415.28,409.57c-.43.49-.85.99-1.27,1.49.42-.5.84-1,1.27-1.49ZM412.21,413.21c-.43.51-.85,1.03-1.27,1.55.42-.52.85-1.04,1.27-1.55ZM406.23,420.74c-.4.52-.8,1.04-1.19,1.57.39-.53.79-1.05,1.19-1.57ZM409.19,416.93c-.42.53-.84,1.05-1.25,1.58.41-.53.83-1.06,1.25-1.58ZM403.3,424.68c-.36.5-.72.99-1.08,1.49.35-.5.72-.99,1.08-1.49ZM195.9,426.41c-.25-.35-.5-.7-.75-1.04.25.35.51.69.75,1.04ZM193.41,422.96c-.32-.43-.65-.87-.98-1.3.33.43.65.86.98,1.3ZM190.83,419.56c-.35-.46-.71-.91-1.06-1.36.36.45.71.91,1.06,1.36ZM188.19,416.21c-.37-.46-.73-.91-1.1-1.37.37.45.74.91,1.1,1.37ZM185.48,412.88c-.37-.44-.73-.88-1.1-1.32.37.44.74.88,1.1,1.32ZM179.75,406.22c-.3-.34-.6-.68-.9-1.02.3.34.6.68.9,1.02ZM182.68,409.58c-.35-.41-.7-.82-1.06-1.23.35.41.71.82,1.06,1.23Z"/>
    </clipPath>
  </defs>
  <g id="black">
    <g>
      <path d="M475.71,354.87c-.29.09-.56.22-.81.39-3.25,2.31-27.12,19.54-50.23,43.91l6.71-15.93,36.68-37.72,36.26-34.28s33.17-32.27,40.76-85.08c.12-.83.18-1.67.18-2.5l2.55-105.42L527.14,0l-4.91,141.29c0,1.94-.3,3.87-.91,5.71l-29.4,105.51c-.5,1.52-1.3,2.92-2.36,4.12l-11.8,13.34-52.02,44.37s-14.21,7.37-15.42-8.31l-4.56-56.57,1.07-21.32.94-34.99-3.62-2.55-5.36,33.78-13,51.21-11.93,36.73-2.87,27.69c-.4,3.88-1.97,7.55-4.49,10.52l-16.14,19.03c-.54.64-1.43.87-2.22.58l-34.97-12.97c-7.55-2.8-15.84-2.93-23.48-.36l-40.37,13.58c-.75.25-1.59.04-2.12-.55l-20.03-22.11c-.32-.36-.51-.82-.52-1.3l-.48-22.15-23.38-85.91-8.37-46.28-2.71,2.71,1.72,45.78-6.4,69.17s-1.72,7.14-10.58,6.89-58.83-48.25-58.83-48.25l-8.53-10.82c-1.03-1.31-1.81-2.8-2.3-4.4l-16.99-55.92-14.52-54.15-3.2-74.09-9.35,55.88-6.89,81.48s-3.69,46.52,29.78,93.29l14.28,16.74,65.23,63.51,10.92,22.2c-23.98-25.96-49.71-44.53-53.02-46.88-.24-.17-.5-.29-.78-.38-39.14-11.64-75.61-13.46-75.61-13.46,19.96,100.79,89.42,108.76,102.35,109.36,1.24.06,2.28.94,2.55,2.15h0c.05.21.12.41.21.61l17.77,36.5c.18.37.28.79.28,1.2v78.47c0,.47.12.93.35,1.35l110.43,196.66c8.06,14.34,28.7,14.34,36.76,0l110.43-196.66c.23-.41.35-.87.35-1.35v-78.47c0-.42.09-.83.28-1.2l17.77-36.5c.09-.19.17-.4.21-.61.27-1.21,1.31-2.09,2.55-2.15,12.93-.61,82.39-8.57,102.35-109.36,0,0-36.46,1.82-75.6,13.46ZM421.52,402.55c-.34.37-.68.75-1.02,1.12.34-.37.68-.75,1.02-1.12ZM418.39,406.02c-.41.46-.81.92-1.21,1.38.4-.46.81-.92,1.21-1.38ZM415.28,409.57c-.43.49-.85.99-1.27,1.49.42-.5.84-1,1.27-1.49ZM412.21,413.21c-.43.51-.85,1.03-1.27,1.55.42-.52.85-1.04,1.27-1.55ZM406.23,420.74c-.4.52-.8,1.04-1.19,1.57.39-.53.79-1.05,1.19-1.57ZM409.19,416.93c-.42.53-.84,1.05-1.25,1.58.41-.53.83-1.06,1.25-1.58ZM403.3,424.68c-.36.5-.72.99-1.08,1.49.35-.5.72-.99,1.08-1.49ZM195.9,426.41c-.25-.35-.5-.7-.75-1.04.25.35.51.69.75,1.04ZM193.41,422.96c-.32-.43-.65-.87-.98-1.3.33.43.65.86.98,1.3ZM190.83,419.56c-.35-.46-.71-.91-1.06-1.36.36.45.71.91,1.06,1.36ZM188.19,416.21c-.37-.46-.73-.91-1.1-1.37.37.45.74.91,1.1,1.37ZM185.48,412.88c-.37-.44-.73-.88-1.1-1.32.37.44.74.88,1.1,1.32ZM179.75,406.22c-.3-.34-.6-.68-.9-1.02.3.34.6.68.9,1.02ZM182.68,409.58c-.35-.41-.7-.82-1.06-1.23.35.41.71.82,1.06,1.23Z"/>
      <g class="cls-1">
        <polygon class="cls-2" points="0 152.93 125.59 248.11 92.57 16.13 55.81 85.03 0 152.93"/>
      </g>
    </g>
  </g>
</svg>